<?xml version='1.0' encoding='UTF-8' standalone='no'?>
<!-- Created with Fritzing (http://www.fritzing.org/) -->
<svg xmlns="http://www.w3.org/2000/svg" version="1.1" height="8.8mm" width="12.5mm" viewBox="0 0 35.4 24.9" baseProfile="tiny">
  <desc >Fritzing footprint generated by brd2svg</desc>
  <g  id="silkscreen" stroke-width="0">
    <path  fill="none" stroke="#000000" stroke-width="0.576" d="M0,24.9h35.4V0H0V24.9"/>
    <g  stroke-width="0">
      <title >package:1X03</title>
      <line  stroke="#000000" stroke-linecap="round" stroke-width="0.576" x1="2.7" y1="8.9" x2="0.9" y2="7.1  "/>
      <line  stroke="#000000" stroke-linecap="round" stroke-width="0.576" x1="0.9" y1="7.1" x2="0.9" y2="3.5  "/>
      <line  stroke="#000000" stroke-linecap="round" stroke-width="0.576" x1="0.9" y1="3.5" x2="2.7" y2="1.7  "/>
      <line  stroke="#000000" stroke-linecap="round" stroke-width="0.576" x1="6.3" y1="1.7" x2="8.1" y2="3.5  "/>
      <line  stroke="#000000" stroke-linecap="round" stroke-width="0.576" x1="8.1" y1="3.5" x2="8.1" y2="7.1  "/>
      <line  stroke="#000000" stroke-linecap="round" stroke-width="0.576" x1="8.1" y1="7.1" x2="6.3" y2="8.9  "/>
      <line  stroke="#000000" stroke-linecap="round" stroke-width="0.576" x1="0.9" y1="21.5" x2="0.9" y2="17.9"/>
      <line  stroke="#000000" stroke-linecap="round" stroke-width="0.576" x1="0.9" y1="17.9" x2="2.7" y2="16.1"/>
      <line  stroke="#000000" stroke-linecap="round" stroke-width="0.576" x1="6.3" y1="16.1" x2="8.1" y2="17.9"/>
      <line  stroke="#000000" stroke-linecap="round" stroke-width="0.576" x1="2.7" y1="16.1" x2="0.9" y2="14.3"/>
      <line  stroke="#000000" stroke-linecap="round" stroke-width="0.576" x1="0.9" y1="14.3" x2="0.9" y2="10.7"/>
      <line  stroke="#000000" stroke-linecap="round" stroke-width="0.576" x1="0.9" y1="10.7" x2="2.7" y2="8.9 "/>
      <line  stroke="#000000" stroke-linecap="round" stroke-width="0.576" x1="6.3" y1="8.9" x2="8.1" y2="10.7 "/>
      <line  stroke="#000000" stroke-linecap="round" stroke-width="0.576" x1="8.1" y1="10.7" x2="8.1" y2="14.3"/>
      <line  stroke="#000000" stroke-linecap="round" stroke-width="0.576" x1="8.1" y1="14.3" x2="6.3" y2="16.1"/>
      <line  stroke="#000000" stroke-linecap="round" stroke-width="0.576" x1="2.7" y1="23.3" x2="6.3" y2="23.3"/>
      <line  stroke="#000000" stroke-linecap="round" stroke-width="0.576" x1="0.9" y1="21.5" x2="2.7" y2="23.3"/>
      <line  stroke="#000000" stroke-linecap="round" stroke-width="0.576" x1="6.3" y1="23.3" x2="8.1" y2="21.5"/>
      <line  stroke="#000000" stroke-linecap="round" stroke-width="0.576" x1="8.1" y1="17.9" x2="8.1" y2="21.5"/>
      <line  stroke="#000000" stroke-linecap="round" stroke-width="0.576" x1="2.7" y1="1.7" x2="6.3" y2="1.7  "/>
    </g>
  </g>
  <g  id="copper1" stroke-width="0">
    <g  id="copper0" stroke-width="0">
     <circle  fill="none" cx="4.5" cy="19.7" connectorname="VCC" stroke="#F7BD13" r="2.052" id="connector2pad" stroke-width="1.224"/>
     <circle  fill="none" cx="4.5" cy="12.5" connectorname="GND" stroke="#F7BD13" r="2.052" id="connector3pad" stroke-width="1.224"/>
     <circle  fill="none" cx="4.5" cy="5.3" connectorname="S" stroke="#F7BD13" r="2.052" id="connector4pad" stroke-width="1.224"/>
   </g>
 </g>
</svg>
